<svg width="13" height="12" viewBox="0 0 13 12" fill="none" xmlns="http://www.w3.org/2000/svg">
<path fill-rule="evenodd" clip-rule="evenodd" d="M6.84387 1.25488C5.60892 1.25488 5.45394 1.26008 4.96871 1.28193C4.48452 1.30378 4.15392 1.38008 3.8646 1.49141C3.56118 1.60469 3.28635 1.78222 3.05926 2.01162C2.82781 2.23684 2.64872 2.50941 2.53449 2.81032C2.42219 3.09679 2.34558 3.42452 2.32319 3.9045C2.30115 4.38553 2.2959 4.53916 2.2959 5.7634C2.2959 6.98763 2.30115 7.14127 2.32319 7.62229C2.34523 8.10228 2.42219 8.43001 2.53449 8.71648C2.65099 9.013 2.80632 9.26443 3.05926 9.51518C3.28635 9.74458 3.56118 9.92211 3.8646 10.0354C4.15392 10.1464 4.48452 10.2227 4.96871 10.2449C5.45394 10.2667 5.60892 10.2719 6.84387 10.2719C8.07882 10.2719 8.2338 10.2667 8.71904 10.2449C9.20322 10.223 9.53382 10.1467 9.82279 10.0354C10.1263 9.92216 10.4013 9.74463 10.6285 9.51518C10.8599 9.28996 11.039 9.01738 11.1532 8.71648C11.2652 8.43001 11.3422 8.10228 11.3646 7.62229C11.3866 7.14127 11.3918 6.98763 11.3918 5.7634C11.3918 4.53916 11.3866 4.38553 11.3646 3.9045C11.3425 3.42452 11.2656 3.09679 11.1529 2.81032C11.0388 2.50945 10.8598 2.23688 10.6285 2.01162C10.4013 1.78217 10.1263 1.60464 9.82279 1.49141C9.53382 1.38043 9.20322 1.30413 8.71904 1.28193C8.2338 1.26008 8.07882 1.25488 6.84387 1.25488ZM6.84387 2.06711C8.05818 2.06711 8.20197 2.07196 8.6816 2.09347C9.12485 2.11358 9.3659 2.18711 9.52612 2.24884C9.73848 2.33068 9.88996 2.42814 10.0491 2.58594C10.2083 2.74373 10.3066 2.8939 10.3892 3.10441C10.4515 3.26325 10.5256 3.50186 10.5459 3.94161C10.5676 4.41674 10.5725 4.55962 10.5725 5.7634C10.5725 6.96717 10.5676 7.10971 10.5459 7.58519C10.5256 8.02494 10.4515 8.26354 10.3892 8.42238C10.3163 8.61822 10.2001 8.79539 10.0491 8.94086C9.9024 9.09056 9.72369 9.20575 9.52612 9.27796C9.3659 9.33969 9.12485 9.41322 8.6816 9.43333C8.20232 9.45483 8.05818 9.45969 6.84387 9.45969C5.62956 9.45969 5.48543 9.45483 5.00614 9.43333C4.56254 9.41322 4.32185 9.33969 4.16162 9.27796C3.96406 9.20575 3.78534 9.09056 3.6386 8.94086C3.48762 8.79538 3.37142 8.61821 3.29855 8.42238C3.23628 8.26354 3.16211 8.02494 3.14182 7.58519C3.12013 7.11006 3.11523 6.96717 3.11523 5.7634C3.11523 4.55962 3.12013 4.41709 3.14182 3.94161C3.16211 3.50186 3.23628 3.26325 3.29855 3.10441C3.38111 2.8939 3.47942 2.74373 3.6386 2.58594C3.78534 2.43624 3.96406 2.32106 4.16162 2.24884C4.32185 2.18711 4.56254 2.11358 5.00614 2.09347C5.48543 2.07196 5.62956 2.06711 6.84387 2.06711Z" fill="#808080"/>
<path fill-rule="evenodd" clip-rule="evenodd" d="M6.93408 3.26635C6.30665 3.26635 5.70492 3.51662 5.26126 3.96211C4.8176 4.40759 4.56836 5.0118 4.56836 5.64181C4.56836 6.27182 4.8176 6.87602 5.26126 7.32151C5.70492 7.76699 6.30665 8.01726 6.93408 8.01726C7.56151 8.01726 8.16323 7.76699 8.60689 7.32151C9.05055 6.87602 9.2998 6.27182 9.2998 5.64181C9.2998 5.0118 9.05055 4.40759 8.60689 3.96211C8.16323 3.51662 7.56151 3.26635 6.93408 3.26635ZM6.93408 7.16888C6.53073 7.16888 6.14391 7.008 5.8587 6.72161C5.57349 6.43523 5.41326 6.04681 5.41326 5.64181C5.41326 5.2368 5.57349 4.84838 5.8587 4.562C6.14391 4.27562 6.53073 4.11473 6.93408 4.11473C7.33742 4.11473 7.72425 4.27562 8.00946 4.562C8.29467 4.84838 8.4549 5.2368 8.4549 5.64181C8.4549 6.04681 8.29467 6.43523 8.00946 6.72161C7.72425 7.008 7.33742 7.16888 6.93408 7.16888ZM9.87433 3.30029C9.87433 3.37159 9.86034 3.44219 9.83317 3.50807C9.80599 3.57394 9.76616 3.6338 9.71595 3.68422C9.66574 3.73464 9.60613 3.77463 9.54052 3.80192C9.47492 3.8292 9.4046 3.84325 9.33359 3.84325C9.26258 3.84325 9.19227 3.8292 9.12666 3.80192C9.06106 3.77463 9.00145 3.73464 8.95123 3.68422C8.90102 3.6338 8.86119 3.57394 8.83402 3.50807C8.80684 3.44219 8.79286 3.37159 8.79286 3.30029C8.79286 3.15628 8.84983 3.01818 8.95123 2.91635C9.05264 2.81453 9.19018 2.75732 9.33359 2.75732C9.477 2.75732 9.61454 2.81453 9.71595 2.91635C9.81736 3.01818 9.87433 3.15628 9.87433 3.30029Z" fill="#808080"/>
</svg>
