<svg width="150" height="610" viewBox="0 0 150 610" fill="none" xmlns="http://www.w3.org/2000/svg">
<g clip-path="url(#clip0_696_253)">
<g opacity="0.2" clip-path="url(#clip1_696_253)">
<path fill-rule="evenodd" clip-rule="evenodd" d="M140.687 113.889C142.477 113.361 144.203 112.635 145.833 111.726C147.326 110.857 148.705 109.805 149.936 108.593C151.502 107.102 152.993 105.386 154.485 103.82C157.273 100.993 159.771 97.895 161.943 94.5718C163.977 91.2482 165.605 87.6925 166.791 83.981C167.923 80.423 168.624 76.7421 168.88 73.0172C168.88 67.5726 164.703 64.6639 163.211 68.9151C162.951 71.8229 162.22 74.6691 161.048 77.343C159.828 80.3676 158.408 83.3077 156.797 86.1439C154.596 90.5659 151.893 94.7201 148.742 98.5247C147.474 100.166 146.281 102.03 144.938 103.671C144.234 104.599 143.406 105.427 142.477 106.132C141.406 106.98 140.227 107.682 138.972 108.221C137.48 108.892 135.914 109.339 134.422 109.861C133.303 112.248 134.422 113.74 137.778 114.635L140.687 113.889Z" fill="#808080"/>
<path fill-rule="evenodd" clip-rule="evenodd" d="M160.602 134.623C164.167 133.622 167.579 132.141 170.746 130.223C173.876 128.396 176.823 126.273 179.546 123.883C186.11 113.516 179.546 115.306 175.593 118.289C172.198 120.288 168.687 122.081 165.077 123.659C161.631 125.314 158.066 126.71 154.412 127.836C151.653 128.901 148.717 129.433 145.76 129.402C142.18 130.148 141.807 133.728 145.76 135.444C150.696 136.447 155.807 136.164 160.602 134.623Z" fill="#808080"/>
<path fill-rule="evenodd" clip-rule="evenodd" d="M192.001 100.165C191.739 97.1309 191.164 94.1316 190.285 91.2155C187.959 83.8068 184.349 76.8645 179.62 70.705C174.938 64.6564 169.441 59.2851 163.286 54.7442C157.81 50.8087 151.935 47.4589 145.759 44.75C139.651 41.9143 133.247 39.7631 126.666 38.3359C126.338 38.2673 125.999 38.264 125.67 38.3263C125.34 38.3885 125.026 38.515 124.746 38.6985C124.18 39.0692 123.783 39.6497 123.645 40.3123C123.507 40.975 123.637 41.6655 124.008 42.232C124.378 42.7985 124.959 43.1945 125.621 43.333C131.762 44.8277 137.716 47.0041 143.372 49.8217C149.025 52.532 154.375 55.832 159.333 59.6667C164.676 64.2544 169.662 69.2409 174.25 74.5834C178.305 80.1973 181.335 86.4847 183.2 93.1546C183.892 95.4318 184.293 97.7875 184.393 100.165C185.705 115.677 182.02 131.201 173.877 144.468C172.311 147.004 170.446 149.689 168.358 152.672C164.23 158.54 158.673 163.258 152.212 166.377C145.751 169.497 138.601 170.915 131.439 170.498H123.981C122.559 170.358 121.158 170.058 119.804 169.603C119.071 169.406 118.402 169.02 117.865 168.483C117.329 167.946 116.943 167.278 116.746 166.545C116.593 165.688 116.634 164.807 116.866 163.968C117.099 163.129 117.516 162.353 118.089 161.697C123.757 154.238 136.361 154.76 140.464 143.424C142.302 139.33 142.772 134.754 141.806 130.372C141.399 127.523 140.622 124.74 139.494 122.093C134.537 112.764 126.829 105.186 117.417 100.389C118.685 97.6296 120.102 94.7955 121.146 91.9613C122.911 87.368 124.259 82.6253 125.174 77.7905C126.201 72.8842 126.725 67.8863 126.74 62.8738C126.725 57.8721 126.276 52.8811 125.398 47.9571C125.072 45.4274 124.523 42.9316 123.757 40.4988C122.916 39.1457 121.733 38.0392 120.326 37.2917C118.253 35.9793 115.905 35.1626 113.464 34.905C108.994 34.6086 104.509 34.6086 100.039 34.905C91.9529 34.6591 83.8614 35.1835 75.8744 36.4713C70.3642 37.4732 65.0185 39.2301 59.9881 41.6921C55.3773 43.9454 51.4795 47.4301 48.7261 51.7609C46.7716 55.0103 45.9091 58.8002 46.2648 62.5755C46.5232 64.6702 47.1815 66.6957 48.204 68.5421C45.8918 68.5496 43.5875 68.274 41.3423 67.7217C39.9248 67.278 38.5516 66.7037 37.2402 66.0063C35.8535 65.371 34.5083 64.6485 33.2127 63.8434C32.7661 63.5849 32.2439 63.4888 31.7345 63.5713C31.2251 63.6537 30.7599 63.9097 30.4176 64.2959C30.0754 64.682 29.8771 65.1746 29.8564 65.6902C29.8357 66.2058 29.9938 66.7127 30.304 67.125C31.5302 68.4781 32.9354 69.6575 34.4806 70.6305C35.5556 71.2544 36.7095 71.731 37.9115 72.0475C42.083 73.2192 46.4089 73.7473 50.7398 73.6138H51.7094C53.9241 75.9552 56.291 78.1478 58.7948 80.1771C59.6898 80.9975 60.8086 81.5942 61.7781 82.34C53.5951 83.5513 45.2365 82.4936 37.6131 79.2821C33.4655 78.0147 29.9485 75.2297 27.7641 71.4831C25.5797 67.7365 24.8887 63.3038 25.829 59.07C26.1231 57.8779 26.4968 56.7068 26.9477 55.5646C27.3776 54.3923 27.9275 53.2676 28.5886 52.2084C30.1394 49.2943 32.302 46.7501 34.9281 44.75C37.7292 42.5871 40.7255 40.6895 43.8781 39.0817C47.2344 37.2171 50.7398 35.5763 54.3198 34.01C57.8561 32.5691 61.4962 31.3973 65.209 30.5046C76.407 28.4923 87.4672 25.7771 98.324 22.375C106.023 19.3986 112.667 14.208 117.417 7.45838C117.618 7.18903 117.764 6.88277 117.846 6.55709C117.929 6.23141 117.946 5.89268 117.898 5.56025C117.849 5.22782 117.736 4.90819 117.564 4.61961C117.392 4.33103 117.165 4.07916 116.895 3.87838C116.626 3.67759 116.32 3.53182 115.994 3.4494C115.668 3.36697 115.33 3.3495 114.997 3.39798C114.665 3.44646 114.345 3.55994 114.056 3.73195C113.768 3.90395 113.516 4.13111 113.315 4.40046C108.962 9.94992 103.075 14.0993 96.3848 16.3338C85.5941 19.135 74.6319 21.2277 63.5681 22.5988C59.423 23.4509 55.3565 24.6484 51.4111 26.1788C47.5675 27.7469 43.8083 29.5144 40.149 31.4742C35.7325 33.7261 31.622 36.5333 27.9173 39.8275C25.2881 42.1588 23.0914 44.9362 21.4286 48.0317C19.7214 51.0046 18.4884 54.2255 17.774 57.5784C16.839 62.339 17.4403 67.2737 19.4913 71.6705C21.5422 76.0672 24.9367 79.6989 29.1852 82.0417C34.9039 85.1256 41.178 87.0432 47.6436 87.6834C54.1091 88.3235 60.6374 87.6734 66.8498 85.7709C70.1315 87.7846 73.5623 89.6492 77.0677 91.3646C86.6144 95.9142 96.9069 99.4196 106.081 103.074C106.387 103.22 106.721 103.301 107.06 103.312C107.399 103.323 107.737 103.263 108.052 103.137C108.368 103.011 108.653 102.821 108.892 102.579C109.13 102.337 109.316 102.049 109.437 101.732C109.686 101.118 109.685 100.431 109.435 99.8172C109.184 99.2039 108.703 98.7132 108.094 98.45C99.219 94.4225 89.1502 90.5442 79.9019 85.6963C73.9625 82.7383 68.4443 79.0011 63.4936 74.5834C60.7412 72.3786 58.24 69.8774 56.0352 67.125C54.9346 65.5889 54.2651 63.7863 54.0961 61.9042C54.0222 59.1691 54.9808 56.5064 56.7811 54.4459C58.62 52.0795 60.9983 50.1871 63.7173 48.9267C68.1139 46.9364 72.7529 45.5322 77.5152 44.75C84.9146 43.585 92.4007 43.061 99.8902 43.1838C102.724 43.1838 106.826 42.5871 110.705 42.7363C112.476 42.6035 114.25 42.9378 115.851 43.7059C116.299 43.7059 116.373 44.75 116.597 45.4213C116.821 46.0925 117.343 48.5538 117.566 49.6725C118.653 54.1007 119.327 58.6198 119.58 63.1721C119.731 67.7596 119.482 72.3514 118.834 76.8955C118.195 81.4798 117.147 85.9978 115.702 90.395C114.221 94.8344 112.503 99.1913 110.556 103.447C110.299 103.981 110.265 104.595 110.461 105.155C110.657 105.714 111.066 106.173 111.6 106.43C111.862 106.568 112.15 106.65 112.446 106.672C112.742 106.693 113.038 106.654 113.318 106.556C113.598 106.458 113.855 106.304 114.072 106.103C114.29 105.901 114.464 105.658 114.583 105.386C114.583 105.386 114.583 104.715 115.105 104.342C123.151 109.039 129.676 115.952 133.9 124.256C135.117 126.846 135.748 129.673 135.748 132.535C135.748 135.397 135.117 138.223 133.9 140.813C132.896 142.925 131.287 144.691 129.276 145.885C125.025 148.794 119.879 150.509 115.553 153.343C112.291 145.69 107.891 138.574 102.501 132.236C98.8444 128.808 94.143 126.707 89.1502 126.27C86.7392 125.987 84.2988 126.429 82.1394 127.538C80.496 128.501 79.173 129.928 78.3356 131.64C77.5793 133.18 77.1237 134.851 76.9931 136.562C76.9581 138.744 77.1835 140.922 77.6644 143.051C78.3121 144.757 78.3121 146.641 77.6644 148.346C77.2169 149.241 75.7998 149.838 74.5319 150.658C72.3718 151.899 70.4107 153.458 68.7144 155.283C67.5514 156.567 66.8473 158.201 66.7123 159.929C66.5774 161.656 67.0192 163.38 67.9686 164.829C69.272 167.062 71.0869 168.954 73.264 170.348C76.088 172.033 79.1225 173.338 82.2886 174.227C87.9935 175.986 93.8686 177.136 99.8156 177.658C105.652 178.035 111.506 178.035 117.343 177.658C117.909 177.638 118.444 177.397 118.834 176.986C120.206 177.413 121.6 177.762 123.011 178.03C125.604 178.485 128.217 178.809 130.842 179C139.264 179.312 147.637 177.606 155.266 174.025C162.894 170.444 169.557 165.092 174.697 158.415C185.033 145.463 191.081 129.614 192.001 113.068C192.299 108.773 192.299 104.461 192.001 100.165ZM111.824 157.147C110.573 158.611 109.658 160.332 109.143 162.187C108.627 164.042 108.524 165.988 108.84 167.887C109.115 169.501 109.753 171.031 110.705 172.362C107.199 172.362 103.246 172.362 100.114 171.542C94.6733 170.738 89.3429 169.311 84.2277 167.29C82.1589 166.554 80.1617 165.631 78.2611 164.531C76.7349 163.69 75.4898 162.419 74.6811 160.876L75.8744 159.907C78.1119 158.266 81.0206 156.774 82.8106 155.133C83.5253 154.388 84.151 153.562 84.6752 152.672C85.5095 151.153 86.0176 149.476 86.1669 147.75C86.2396 145.492 86.0139 143.235 85.4956 141.037C84.8989 139.271 84.8989 137.358 85.4956 135.593C85.5372 135.307 85.647 135.036 85.8158 134.802C85.9847 134.569 86.2074 134.379 86.4652 134.25C87.1066 134.136 87.7631 134.136 88.4044 134.25C90.7211 134.336 92.9956 134.896 95.0868 135.897C97.178 136.898 99.0414 138.317 100.561 140.068C104.947 145.264 108.913 150.8 112.42 156.625L111.824 157.147Z" fill="#808080"/>
<path fill-rule="evenodd" clip-rule="evenodd" d="M142.254 158.49C144.479 160.541 147.165 162.025 150.086 162.816C156.724 162.219 160.676 160.503 159.409 156.476H156.127C154.242 156.054 152.431 155.35 150.757 154.388C148.929 153.556 147.181 152.557 145.536 151.404C144.001 150.371 142.508 149.276 141.061 148.123C137.183 147.75 136.437 149.763 137.556 153.269C138.942 155.163 140.516 156.912 142.254 158.49Z" fill="#808080"/>
<path fill-rule="evenodd" clip-rule="evenodd" d="M18.4455 50.5676C18.2713 46.4074 19.2348 42.2784 21.2323 38.625C23.2299 34.9716 26.1858 31.932 29.7822 29.8334C35.4029 26.2148 41.5036 23.403 47.9059 21.4801C54.3971 19.3252 61.0249 17.606 67.7451 16.3338C73.5908 15.4562 79.3364 14.0073 84.8992 12.008C89.0845 10.4437 92.5221 7.35254 94.5205 3.35631C94.663 3.1029 94.753 2.82335 94.7851 2.53437C94.8171 2.24539 94.7906 1.95292 94.707 1.67443C94.6235 1.39594 94.4846 1.13716 94.2988 0.913545C94.113 0.689931 93.884 0.506079 93.6255 0.372977C93.0983 0.101551 92.4869 0.0430819 91.9178 0.209655C91.3486 0.376229 90.8653 0.755109 90.5676 1.26798C88.8435 3.94573 86.185 5.88643 83.1092 6.71256C77.7469 7.95739 72.277 8.68172 66.7755 8.87548C59.5496 9.71205 52.4117 11.1846 45.4447 13.2759C38.1797 15.4972 31.3629 18.9813 25.3072 23.5684C20.9361 26.5739 17.499 30.7487 15.3887 35.6155C13.2784 40.4823 12.5802 45.8447 13.3738 51.0896C13.4019 51.4231 13.4958 51.7478 13.65 52.0448C13.8041 52.3418 14.0156 52.6054 14.2721 52.8204C14.5287 53.0353 14.8252 53.1973 15.1446 53.2971C15.4641 53.3969 15.8001 53.4324 16.1334 53.4017C16.8133 53.3264 17.4364 52.9873 17.8688 52.4573C18.3012 51.9273 18.5083 51.2487 18.4455 50.5676Z" fill="#808080"/>
<path fill-rule="evenodd" clip-rule="evenodd" d="M98.1755 63.9179C99.8265 64.7679 101.735 64.9715 103.528 64.4887C105.322 64.0059 106.87 62.8716 107.871 61.3075C108.537 60.5311 108.974 59.5848 109.134 58.5744C109.293 57.564 109.169 56.5291 108.774 55.5853C108.38 54.6415 107.731 53.826 106.9 53.2297C106.068 52.6333 105.088 52.2797 104.068 52.2083C98.3246 51.3133 90.9409 60.4125 98.1755 63.9179Z" fill="#808080"/>
</g>
<g opacity="0.2">
<path d="M151.187 448.937C151.187 453.78 150.234 458.575 148.381 463.049C146.527 467.523 143.811 471.588 140.387 475.012C136.963 478.436 132.898 481.152 128.424 483.006C123.95 484.859 119.155 485.812 114.312 485.812V412.062C119.155 412.062 123.95 413.016 128.424 414.869C132.898 416.723 136.963 419.439 140.387 422.863C143.811 426.287 146.527 430.352 148.381 434.826C150.234 439.3 151.187 444.095 151.187 448.937Z" stroke="#808080" stroke-width="6.2379" stroke-linecap="round" stroke-linejoin="round"/>
<path d="M114.312 412.063V404.688" stroke="#808080" stroke-width="6.2379" stroke-linecap="round" stroke-linejoin="round"/>
<path d="M62.6875 500.562H77.4375" stroke="#808080" stroke-width="6.2379" stroke-linecap="round" stroke-linejoin="round"/>
<path d="M33.1875 471.062H99.5625" stroke="#808080" stroke-width="6.2379" stroke-linecap="round" stroke-linejoin="round"/>
<path d="M44.25 574.313L51.625 526.036" stroke="#808080" stroke-width="6.2379" stroke-linecap="round" stroke-linejoin="round"/>
<path d="M81.125 563.25C81.125 564.703 81.4111 566.141 81.9671 567.483C82.523 568.825 83.3379 570.045 84.3651 571.072C85.3924 572.099 86.6119 572.914 87.9541 573.47C89.2962 574.026 90.7348 574.312 92.1875 574.312C93.6402 574.312 95.0788 574.026 96.4209 573.47C97.7631 572.914 98.9826 572.099 100.01 571.072C101.037 570.045 101.852 568.825 102.408 567.483C102.964 566.141 103.25 564.703 103.25 563.25C103.25 561.797 102.964 560.359 102.408 559.016C101.852 557.674 101.037 556.455 100.01 555.428C98.9826 554.4 97.7631 553.585 96.4209 553.029C95.0788 552.474 93.6402 552.187 92.1875 552.187C90.7348 552.187 89.2962 552.474 87.9541 553.029C86.6119 553.585 85.3924 554.4 84.3651 555.428C83.3379 556.455 82.523 557.674 81.9671 559.016C81.4111 560.359 81.125 561.797 81.125 563.25Z" stroke="#808080" stroke-width="6.2379" stroke-linecap="round" stroke-linejoin="round"/>
<path d="M88.5071 526.043L89.6355 552.497" stroke="#808080" stroke-width="6.2379" stroke-linecap="round" stroke-linejoin="round"/>
<path d="M48.8594 544.812H89.3039" stroke="#808080" stroke-width="6.2379" stroke-linecap="round" stroke-linejoin="round"/>
<path d="M70.0625 530.062C81.7983 530.062 93.0535 525.4 101.352 517.102C109.65 508.803 114.312 497.548 114.312 485.812H25.8125C25.8125 497.548 30.4745 508.803 38.773 517.102C47.0715 525.4 58.3267 530.062 70.0625 530.062Z" stroke="#808080" stroke-width="6.2379" stroke-linecap="round" stroke-linejoin="round"/>
</g>
<g opacity="0.2">
<path d="M52.8182 322.888L36.0176 362.243" stroke="#808080" stroke-width="6.2379" stroke-linecap="round" stroke-linejoin="round"/>
<path d="M20.875 355.778L51.1517 368.708" stroke="#808080" stroke-width="6.2379" stroke-linecap="round" stroke-linejoin="round"/>
<path d="M57.498 253.302L99.875 271.407" stroke="#808080" stroke-width="6.2379" stroke-linecap="round" stroke-linejoin="round"/>
<path d="M38.9526 288.333L73.3308 223.961C73.719 223.236 74.3648 222.682 75.141 222.409C75.9172 222.136 76.7675 222.164 77.5244 222.487L108.301 235.653C109.057 235.978 109.664 236.573 110.003 237.322C110.342 238.072 110.388 238.921 110.132 239.702L87.3664 309.025C84.5633 315.356 79.3782 320.329 72.9352 322.867C66.4919 325.403 59.3087 325.3 52.9409 322.58C46.573 319.859 41.5331 314.739 38.9126 308.329C36.292 301.92 36.3016 294.736 38.9394 288.333H38.9526Z" stroke="#808080" stroke-width="6.2379" stroke-linecap="round" stroke-linejoin="round"/>
<path d="M135.84 320.743L142.891 362.949" stroke="#808080" stroke-width="6.2379" stroke-linecap="round" stroke-linejoin="round"/>
<path d="M159.125 360.235L126.656 365.66" stroke="#808080" stroke-width="6.2379" stroke-linecap="round" stroke-linejoin="round"/>
<path d="M147.723 252.012L119.474 256.732" stroke="#808080" stroke-width="6.2379" stroke-linecap="round" stroke-linejoin="round"/>
<path d="M105.53 299.102C106.1 302.514 107.336 305.779 109.168 308.712C110.999 311.645 113.391 314.189 116.206 316.198C119.021 318.208 122.203 319.643 125.573 320.422C128.943 321.2 132.432 321.308 135.843 320.738C139.254 320.169 142.519 318.932 145.453 317.101C148.386 315.27 150.93 312.878 152.939 310.063C154.948 307.248 156.383 304.065 157.162 300.696C157.942 297.327 158.049 293.837 157.479 290.425L139.263 219.76C139.057 218.962 138.56 218.271 137.868 217.822C137.177 217.374 136.343 217.201 135.531 217.337L109.816 221.636" stroke="#808080" stroke-width="6.2379" stroke-linecap="round" stroke-linejoin="round"/>
<path d="M65.6546 276.542C64.7457 276.542 64.0088 275.805 64.0088 274.896C64.0088 273.987 64.7457 273.25 65.6546 273.25" stroke="#808080" stroke-width="6.2379"/>
<path d="M65.6553 276.542C66.5642 276.542 67.3011 275.805 67.3011 274.896C67.3011 273.987 66.5642 273.25 65.6553 273.25" stroke="#808080" stroke-width="6.2379"/>
<path d="M124.562 276.087C123.653 276.087 122.916 275.35 122.916 274.441C122.916 273.532 123.653 272.795 124.562 272.795" stroke="#808080" stroke-width="6.2379"/>
<path d="M124.562 276.087C125.472 276.087 126.208 275.35 126.208 274.441C126.208 273.532 125.472 272.795 124.562 272.795" stroke="#808080" stroke-width="6.2379"/>
<path d="M137.727 289.26C136.818 289.26 136.081 288.523 136.081 287.614C136.081 286.705 136.818 285.968 137.727 285.968" stroke="#808080" stroke-width="6.2379"/>
<path d="M137.726 289.26C138.635 289.26 139.371 288.523 139.371 287.614C139.371 286.705 138.635 285.968 137.726 285.968" stroke="#808080" stroke-width="6.2379"/>
<path d="M127.852 302.427C126.943 302.427 126.206 301.69 126.206 300.781C126.206 299.872 126.943 299.135 127.852 299.135" stroke="#808080" stroke-width="6.2379"/>
<path d="M127.852 302.427C128.761 302.427 129.498 301.69 129.498 300.781C129.498 299.872 128.761 299.135 127.852 299.135" stroke="#808080" stroke-width="6.2379"/>
<path d="M75.5299 296.292C74.6209 296.292 73.884 295.555 73.884 294.646C73.884 293.737 74.6209 293 75.5299 293" stroke="#808080" stroke-width="6.2379"/>
<path d="M75.5303 296.292C76.4392 296.292 77.176 295.555 77.176 294.646C77.176 293.737 76.4392 293 75.5303 293" stroke="#808080" stroke-width="6.2379"/>
<path d="M55.7806 302.875C54.8716 302.875 54.1348 302.138 54.1348 301.229C54.1348 300.32 54.8716 299.583 55.7806 299.583" stroke="#808080" stroke-width="6.2379"/>
<path d="M55.781 302.875C56.69 302.875 57.4268 302.138 57.4268 301.229C57.4268 300.32 56.69 299.583 55.781 299.583" stroke="#808080" stroke-width="6.2379"/>
</g>
</g>
<defs>
<clipPath id="clip0_696_253">
<rect width="288" height="610" fill="white"/>
</clipPath>
<clipPath id="clip1_696_253">
<rect width="179" height="179" fill="white" transform="translate(13)"/>
</clipPath>
</defs>
</svg>
