<svg width="146" height="641" viewBox="0 0 146 641" fill="none" xmlns="http://www.w3.org/2000/svg">
<g clip-path="url(#clip0_696_343)">
<g opacity="0.2" clip-path="url(#clip1_696_343)">
<path d="M18.6249 17.7499C18.9999 18.9374 19.1874 20.1249 19.4374 21.3124C19.7492 22.9015 19.7492 24.5359 19.4374 26.1249C19.2415 27.7314 18.8425 29.3065 18.2499 30.8124C17.3124 33.4374 16.1874 36.1249 15.3124 38.8124C15.1035 39.3269 15.1042 39.9028 15.3144 40.4167C15.5247 40.9307 15.9278 41.3419 16.4374 41.5624C16.6943 41.6847 16.9737 41.7525 17.2581 41.7615C17.5424 41.7706 17.8256 41.7207 18.0897 41.6151C18.3539 41.5094 18.5933 41.3502 18.793 41.1476C18.9927 40.9449 19.1482 40.7031 19.2499 40.4374C20.8124 37.6249 22.8749 34.8749 24.4374 32.0624C25.1944 30.6209 25.8219 29.115 26.3124 27.5624C27.0463 24.1859 26.7858 20.669 25.5624 17.4374C23.5704 13.421 21.0936 9.66382 18.1874 6.24993C18.0643 6.03653 17.9004 5.84947 17.705 5.69943C17.5096 5.54939 17.2865 5.43931 17.0486 5.37547C16.8106 5.31163 16.5624 5.29528 16.3182 5.32736C16.0739 5.35944 15.8383 5.43931 15.6249 5.56243C15.4115 5.68554 15.2245 5.84948 15.0744 6.04489C14.9244 6.2403 14.8143 6.46334 14.7505 6.70129C14.6866 6.93924 14.6703 7.18744 14.7024 7.4317C14.7345 7.67597 14.8143 7.91153 14.9374 8.12493C16.1874 11.3124 17.6249 14.4999 18.6249 17.7499Z" fill="#808080"/>
<path d="M124.188 120.437C122.661 120.153 121.115 119.986 119.562 119.937C110.187 119.375 88.3125 119.437 79 119.937C74.125 120.312 69.375 120.5 64.625 120.687C57.4375 120.687 50.25 121 42.9375 121.125L0.937483 122.187C-1.18752 122.187 -6.06252 122.187 -9.68752 122.812C-11.506 122.91 -13.2982 123.289 -15 123.937C-15.3189 124.165 -15.5613 124.484 -15.6952 124.852C-15.8291 125.22 -15.8482 125.621 -15.75 126C-16.1381 126.272 -16.4271 126.663 -16.5737 127.114C-16.7202 127.565 -16.7163 128.051 -16.5625 128.5C-15.5029 130.851 -13.9957 132.974 -12.125 134.75C-9.60676 137.226 -6.86604 139.464 -3.93752 141.437C-0.942544 143.279 2.32802 144.63 5.74998 145.437C10.6154 146.61 15.5388 147.528 20.5 148.187C30.0034 149.511 39.593 150.117 49.1875 150C58.7324 149.917 68.2663 149.333 77.75 148.25C85.8249 147.571 93.8437 146.339 101.75 144.562C107.105 143.158 112.254 141.056 117.062 138.312C120.502 135.676 123.48 132.486 125.875 128.875C126.634 127.746 127.204 126.5 127.562 125.187C127.721 124.288 127.566 123.362 127.125 122.562C126.813 122.021 126.389 121.552 125.883 121.186C125.377 120.82 124.799 120.565 124.188 120.437ZM113.188 131.875C108.917 134.41 104.337 136.384 99.5625 137.75C92.0633 139.598 84.4387 140.893 76.75 141.625C67.5314 142.951 58.2463 143.765 48.9375 144.062C39.6532 144.385 30.3577 144.03 21.125 143C16.3622 142.509 11.6271 141.778 6.93748 140.812C3.99644 140.131 1.17363 139.015 -1.43752 137.5C-4.14167 135.766 -6.67401 133.778 -9.00002 131.562C-10.4646 130.28 -11.6733 128.732 -12.5625 127C-10.494 126.689 -8.40414 126.543 -6.31252 126.562H1.06248L43.0625 126.875H64.875C69.6667 126.875 74.5417 126.75 79.5 126.5C88.3125 126.062 108.312 126.5 118.062 126.875C116.731 128.804 115.083 130.495 113.188 131.875Z" fill="#808080"/>
<path d="M129.562 27.625C126.667 24.2797 122.682 22.0658 118.312 21.375C116.803 21.3037 115.29 21.4298 113.812 21.75C114.143 18.6998 113.462 15.6256 111.875 13C109.062 9.02919 104.875 6.24491 100.125 5.18752C98.8768 4.86957 97.5992 4.68107 96.3125 4.62502C94.954 4.61461 93.603 4.82571 92.3125 5.25002C90.3755 5.73053 88.5818 6.66781 87.0813 7.9835C85.5807 9.29918 84.417 10.955 83.6875 12.8125C79.875 23.8125 90.8125 31.5625 91.0625 31.5625C87.3629 34.5613 84.0463 38.0038 81.1875 41.8125C80.5344 42.7195 80.0477 43.7353 79.75 44.8125C71.0637 42.8513 61.9558 44.3059 54.3125 48.875L53.75 49.25C52.0377 48.8657 50.306 48.5736 48.5625 48.375C45 47.9375 41.1875 47.5625 40.0625 47.5C37.4855 47.4509 34.9101 47.6603 32.375 48.125C28.6383 48.8176 24.976 49.864 21.4375 51.25C14.7317 53.8323 8.64224 57.7926 3.56247 62.875C-1.49616 67.9624 -5.47193 74.0217 -8.12504 80.6875C-9.159 83.1929 -10.0357 85.7604 -10.75 88.375C-11.4833 91.0203 -12.0263 93.7147 -12.375 96.4375C-12.9235 100.586 -12.9235 104.789 -12.375 108.938C-12.1418 112.076 -10.7888 115.026 -8.56254 117.25C-8.16423 117.647 -7.62485 117.87 -7.06254 117.87C-6.50022 117.87 -5.96084 117.647 -5.56254 117.25C-5.18018 116.844 -4.96725 116.308 -4.96725 115.75C-4.96725 115.192 -5.18018 114.656 -5.56254 114.25C-6.85913 112.618 -7.54448 110.584 -7.50004 108.5C-7.74004 104.837 -7.4878 101.158 -6.75004 97.5625C-6.25586 95.1488 -5.60872 92.769 -4.81254 90.4375C-4.02003 88.0981 -3.10204 85.8031 -2.06254 83.5625C0.502624 77.7378 4.12648 72.4398 8.62496 67.9375C12.9704 63.3916 18.1472 59.7212 23.875 57.125C26.463 55.875 29.1364 54.8098 31.875 53.9375C34.5107 53.1225 37.2428 52.6602 40 52.5625H48.1875H49.125C42.4435 58.0583 37.6559 65.5129 35.4375 73.875C34.3419 78.8782 34.3419 84.0593 35.4375 89.0625C36.36 93.9888 38.1593 98.7095 40.75 103L45 108.125C45.2486 108.556 45.6583 108.871 46.1388 108.999C46.6194 109.128 47.1315 109.061 47.5625 108.813C47.9934 108.564 48.308 108.154 48.4369 107.674C48.5659 107.193 48.4986 106.681 48.25 106.25L44.25 101C42.1705 97.105 40.7952 92.8733 40.1875 88.5C39.5336 84.196 39.8323 79.801 41.0625 75.625C43.8795 66.8774 49.9407 59.5413 58 55.125C61.7402 52.8891 65.9612 51.5806 70.3103 51.3088C74.6594 51.037 79.0104 51.8097 83 53.5625C84.2076 54.1148 85.3079 54.8766 86.25 55.8125C88.0044 57.4153 89.6342 59.1495 91.125 61C91.7194 61.6929 92.2042 62.4728 92.5625 63.3125C93.1775 65.0119 93.6991 66.7436 94.125 68.5C95.4109 73.269 95.6244 78.2637 94.75 83.125C94.1698 87.9634 92.2667 92.548 89.25 96.375C87.8125 98 86.3125 99.5625 84.6875 101.125C75.875 109.625 77.4375 104.813 75.4375 107.063C75.0405 107.461 74.8177 108 74.8177 108.563C74.8177 109.125 75.0405 109.664 75.4375 110.063C75.8365 110.449 76.3248 110.731 76.859 110.884C77.3932 111.037 77.9569 111.055 78.5 110.938C79.9481 110.615 81.298 109.95 82.4375 109C84.1875 107.563 86 106.125 87.6875 104.562C89.375 103 91.125 101.438 92.6875 99.8125C96.6843 95.4336 99.3698 90.0193 100.437 84.1875C101.481 79.3386 101.629 74.3397 100.875 69.4375C102.007 70.3383 103.054 71.3427 104 72.4375C105.506 74.1873 106.787 76.1191 107.812 78.1875C109.056 80.706 110.041 83.3446 110.75 86.0625C111.496 88.7832 111.998 91.565 112.25 94.375C112.766 100.16 112.085 105.989 110.25 111.5C110.128 111.752 110.061 112.027 110.053 112.307C110.044 112.587 110.095 112.866 110.201 113.125C110.307 113.385 110.466 113.619 110.668 113.812C110.871 114.006 111.111 114.155 111.375 114.25C111.636 114.373 111.92 114.442 112.209 114.451C112.498 114.461 112.786 114.412 113.055 114.306C113.324 114.201 113.569 114.042 113.774 113.839C113.98 113.636 114.142 113.393 114.25 113.125C117.284 107.329 118.952 100.915 119.125 94.375C119.138 90.9937 118.675 87.6274 117.75 84.375C116.741 81.1375 115.268 78.0637 113.375 75.25C111.759 72.9092 109.823 70.8056 107.625 69C105.454 67.1016 102.925 65.6566 100.187 64.75C99.9205 63.5449 99.5867 62.3555 99.1875 61.1875C98.6185 59.6381 97.8177 58.1841 96.8125 56.875L96 56.25L99.125 53.8125C101.312 51.625 103.312 49.0625 105.375 46.875C106.378 45.8607 107.488 44.9595 108.687 44.1875C112.694 47.1774 117.506 48.8973 122.5 49.125C124.743 48.8512 126.845 47.8856 128.514 46.3623C130.183 44.839 131.336 42.8337 131.812 40.625C132.687 38.4639 132.94 36.1012 132.542 33.804C132.145 31.5068 131.113 29.3665 129.562 27.625ZM125.75 38.625C124.625 42.4375 122.625 43.5625 120.25 43.25C117.016 42.5294 113.943 41.2156 111.187 39.375C110.667 39.0341 110.075 38.8173 109.457 38.7415C108.839 38.6656 108.213 38.7327 107.625 38.9375C106.043 39.8196 104.574 40.8899 103.25 42.125C100.562 44.75 98.4375 47.9375 95.875 50.625L93.1875 52.9375C92.5 52.125 91.75 51.375 91 50.625C89.5209 49.2109 87.8349 48.0307 86 47.125C85.1466 46.7375 84.2699 46.4035 83.375 46.125C83.7929 45.0132 84.455 44.0094 85.3125 43.1875C87.4186 40.9315 89.6963 38.842 92.125 36.9375C92.625 36.5 94.1875 35.5 95 34.6875C95.4893 34.1349 95.833 33.469 96 32.75C96.1508 31.642 95.8589 30.5192 95.1875 29.625C94.1875 28.0625 91.875 26.1875 91.375 25.1875C89.8336 22.5384 89.0953 19.4985 89.25 16.4375C89.5625 14.125 91.1875 12.4375 94.5 11.5C95.1234 11.4378 95.7515 11.4378 96.375 11.5C97.0592 11.5488 97.7328 11.6962 98.375 11.9375C101.46 12.65 104.175 14.4746 106 17.0625C106.678 18.3204 107.033 19.7271 107.033 21.1563C107.033 22.5854 106.678 23.9921 106 25.25C105.687 25.9375 106.375 31.125 110.875 30.125C113.147 29.4058 115.497 28.9651 117.875 28.8125C120.522 29.0519 122.99 30.2525 124.812 32.1875C125.545 33.0711 126.019 34.1392 126.185 35.2747C126.35 36.4102 126.2 37.5693 125.75 38.625Z" fill="#808080"/>
</g>
<g opacity="0.2" clip-path="url(#clip2_696_343)">
<path d="M42.8682 325.33C35.4882 324.988 28.2449 323.895 20.9332 323.212C17.7215 323.212 14.5098 322.802 11.2982 322.665C3.30318 322.665 -4.62348 324.032 -12.6185 324.1C-13.688 324.168 -14.7607 324.168 -15.8302 324.1C-17.6752 324.1 -18.4952 327.448 -15.8302 328.952C-13.5746 329.374 -11.2903 329.625 -8.99682 329.703C-2.16349 330.113 4.66985 329.703 11.5032 330.387C16.8332 330.387 22.0265 331.07 27.2882 331.275C32.5498 331.48 38.0165 331.275 43.4148 331.275L50.9315 330.933C53.7332 330.933 53.7332 326.492 50.9315 325.877C48.2664 325.446 45.5671 325.263 42.8682 325.33Z" fill="#808080"/>
<path d="M6.51493 286.585L25.5116 287.542L50.9999 285.833C51.4509 285.497 51.7868 285.029 51.9619 284.494C52.137 283.959 52.1427 283.383 51.9782 282.845C51.8138 282.306 51.4872 281.832 51.043 281.486C50.5988 281.141 50.0588 280.941 49.4966 280.913L25.6483 280.093L6.6516 279C-0.181731 279.342 -6.4684 280.64 -13.0284 280.503C-16.3084 280.503 -17.6067 285.355 -13.0284 285.56C-6.53673 285.833 -0.0450678 285.833 6.51493 286.585Z" fill="#808080"/>
<path d="M60.4296 291.642V277.087C60.1954 273.453 59.3161 269.889 57.8329 266.563C56.5512 263.652 54.6094 261.078 52.1612 259.047C48.78 256.464 45.0239 254.413 41.0229 252.965C39.9296 252.487 38.1529 252.077 36.4446 251.462C35.6248 251.173 34.8444 250.782 34.1212 250.3C33.7812 249.264 33.6195 248.178 33.6429 247.088V240.255V223.923C33.9227 220.946 33.9227 217.949 33.6429 214.972C33.3866 213.115 32.4636 211.415 31.0462 210.188C30.2659 209.557 29.3132 209.176 28.3129 209.095C28.8586 207.116 29.0892 205.064 28.9962 203.013C28.9776 202.149 28.7725 201.298 28.3952 200.52C28.0178 199.741 27.477 199.054 26.8096 198.503C26.2323 198.212 25.6073 198.027 24.9646 197.957C24.1915 197.891 23.4143 197.891 22.6412 197.957L16.3546 197C13.4382 196.492 10.456 196.492 7.53956 197C5.68946 197.597 4.12954 198.865 3.16623 200.553C2.69443 201.12 2.38717 201.806 2.27789 202.535C2.28678 203.555 2.448 204.569 2.75623 205.542L3.64456 210.667H2.75623C-0.0454407 210.667 0.43289 212.99 0.842892 238.957V245.79C0.855604 246.952 0.670748 248.107 0.296225 249.207L-5.85378 252.145C-8.24838 253.412 -10.534 254.874 -12.6871 256.518C-14.8206 258.196 -16.7678 260.097 -18.4954 262.19C-21.1213 265.356 -22.8865 269.145 -23.6204 273.192C-24.5088 278.043 -23.6204 283.1 -24.7821 289.113C-25.2604 293.418 -25.8071 297.655 -26.1488 301.96C-26.1488 304.83 -26.5588 307.768 -26.6271 310.707C-26.6271 317.54 -27.0371 324.373 -27.0371 330.865C-27.0371 333.803 -27.0371 336.81 -26.6954 339.748C-26.6331 342.909 -26.1973 346.051 -25.3971 349.11C-24.8691 351.046 -23.7456 352.767 -22.1854 354.03C-20.6781 355.161 -19.0511 356.124 -17.3338 356.9C-15.6026 357.635 -13.7906 358.162 -11.9354 358.472C-10.0355 358.8 -8.11949 359.029 -6.19544 359.155H6.44622H27.8346C31.7299 359.167 35.6182 358.824 39.4512 358.13C44.9972 356.633 50.4132 354.691 55.6462 352.322C57.6962 351.502 57.2179 350.477 58.8579 326.492C59.4729 319.18 59.8829 312.825 60.0879 305.992C60.5662 301.14 60.5662 296.562 60.4296 291.642ZM8.35956 204.585H23.0512C23.0512 205.952 24.0079 208.207 23.9396 209.3H23.6662H22.5729C17.8579 209.3 13.1429 210.325 8.42789 210.667H8.08622C8.08622 210.667 8.29123 204.79 8.35956 204.585ZM53.0496 348.085C48.1979 349.862 44.8496 351.228 41.3646 352.117C37.0499 353.153 32.6056 353.544 28.1762 353.278L7.12956 352.8C3.50789 352.8 0.296227 352.8 -3.59877 352.253C-5.89333 352.105 -8.17588 351.808 -10.4321 351.365C-11.7495 351.067 -13.0321 350.632 -14.2588 350.067C-15.4862 349.486 -16.6344 348.752 -17.6754 347.88C-18.4271 347.333 -18.4271 345.967 -18.6321 344.668C-18.8371 343.37 -18.6321 340.227 -18.9738 338.86V330.523C-18.9738 329.772 -18.4954 314.807 -18.4271 310.433V302.233C-18.4271 297.997 -16.8554 276.13 -16.5821 274.08C-16.1788 271.137 -14.9996 268.354 -13.1654 266.017C-11.8383 264.202 -10.3015 262.551 -8.58711 261.097C-6.87514 259.579 -5.02167 258.229 -3.05211 257.065C-0.926678 256.305 1.15002 255.415 3.16623 254.4C4.4077 253.673 5.38815 252.573 5.96789 251.257C6.47102 249.875 6.74791 248.421 6.7879 246.952C6.7879 244.15 6.30956 240.938 6.24122 238.82L5.01123 215.177H8.97456C13.6212 215.177 18.2679 214.493 22.6412 214.493H27.9712C28.1172 215.169 28.1172 215.868 27.9712 216.543C27.8569 218.834 27.6059 221.116 27.2196 223.377L26.7412 239.913C26.7412 242.168 26.2629 244.765 26.2629 247.293C26.2358 249.265 26.536 251.228 27.1512 253.102C27.8451 254.925 29.1818 256.432 30.9096 257.338C33.1234 258.402 35.4063 259.315 37.7429 260.072C40.9947 261.293 44.0551 262.972 46.8312 265.06C48.3803 266.309 49.6198 267.899 50.4529 269.707C51.5371 272.269 52.1838 274.994 52.3662 277.77C52.3662 278.795 52.8446 289.933 52.9812 292.052C53.3912 297.997 53.5962 303.463 53.5962 308.998C53.9379 312.62 54.2112 302.37 53.0496 348.29V348.085Z" fill="#808080"/>
<path d="M128.217 287.475L126.714 276.405C126.702 274.976 126.518 273.554 126.167 272.169C125.832 271.246 125.209 270.455 124.39 269.914C122.772 268.913 120.894 268.413 118.992 268.479C115.852 268.684 112.726 269.072 109.63 269.64C104.915 270.187 100.132 270.529 95.3487 270.734C90.5653 270.939 85.7137 270.734 80.9303 270.734C80.6252 270.725 80.3213 270.776 80.0359 270.884C79.7505 270.993 79.4893 271.156 79.2672 271.366C79.0451 271.575 78.8664 271.826 78.7414 272.105C78.6164 272.383 78.5475 272.684 78.5387 272.989C78.5328 273.56 78.7261 274.116 79.0853 274.56L78.5387 280.437C77.992 284.264 77.5137 288.022 77.1037 291.78C77.1037 294.377 76.6253 296.974 76.557 299.57V310.025V314.74C76.4576 315.557 76.4576 316.383 76.557 317.2C76.9711 318.979 77.5428 320.717 78.2653 322.394C78.8149 323.629 79.5026 324.798 80.3153 325.879C83.6482 330.035 88.3013 332.929 93.5037 334.079C95.0346 334.445 96.5863 334.719 98.1503 334.899C98.1503 336.47 97.672 337.974 97.5353 339.614C97.3987 341.254 97.5353 343.099 97.5353 344.944C97.5353 346.789 97.5353 348.155 98.082 349.727C98.3364 351.018 98.6557 352.295 99.0387 353.554C96.442 353.895 93.982 354.579 91.3853 355.057C91.1194 355.048 90.8543 355.092 90.606 355.188C90.3576 355.283 90.131 355.428 89.9397 355.613C89.7484 355.798 89.5963 356.019 89.4924 356.264C89.3886 356.509 89.3352 356.773 89.3353 357.039C89.3262 357.305 89.3706 357.57 89.4661 357.818C89.5616 358.066 89.7061 358.293 89.891 358.484C90.076 358.676 90.2975 358.828 90.5425 358.932C90.7875 359.035 91.0509 359.089 91.317 359.089C93.8563 359.84 96.4339 360.456 99.0387 360.934C100.177 361.002 101.317 361.002 102.455 360.934C103.579 360.864 104.697 360.727 105.804 360.524C108.466 360.018 111.092 359.333 113.662 358.474C114.255 358.373 114.786 358.046 115.143 357.561C115.5 357.077 115.655 356.473 115.575 355.877C115.542 355.573 115.448 355.28 115.297 355.014C115.147 354.748 114.945 354.515 114.702 354.33C114.459 354.144 114.181 354.01 113.885 353.936C113.589 353.861 113.28 353.847 112.979 353.895C110.382 353.895 107.854 353.349 105.257 353.212H104.505C104.47 352.62 104.47 352.027 104.505 351.435C105.337 347.459 105.727 343.403 105.667 339.34C105.453 337.862 105.134 336.4 104.71 334.967C106.246 334.916 107.776 334.757 109.289 334.489C111.523 333.937 113.681 333.111 115.712 332.029C117.261 331.262 118.688 330.272 119.949 329.09C122.078 326.848 123.811 324.26 125.074 321.437C126.535 317.364 127.431 313.111 127.739 308.795C128.217 305.242 128.559 301.962 128.695 298.272C128.772 294.667 128.612 291.06 128.217 287.475ZM120.154 307.975C119.825 311.068 119.254 314.129 118.445 317.132C117.524 319.68 116.081 322.007 114.209 323.965C113.337 324.648 112.37 325.201 111.339 325.605C110.267 326.213 109.117 326.673 107.922 326.972C103.998 327.758 99.9564 327.758 96.032 326.972C92.3482 326.326 88.9832 324.476 86.4653 321.71C85.7477 320.926 85.1698 320.025 84.757 319.045C84.2676 317.937 83.8565 316.795 83.527 315.629L82.912 309.752C82.4007 303.936 82.1954 298.097 82.297 292.259C82.297 288.5 82.7753 284.742 83.117 280.984V275.585H95.417C100.269 275.585 105.189 275.585 110.109 275.107C112.022 275.107 114.96 274.355 117.694 274.287H119.607C119.524 275.059 119.524 275.838 119.607 276.61L120.632 288.09C121.061 294.629 120.9 301.192 120.154 307.702V307.975Z" fill="#808080"/>
<path d="M119.333 293.077C117.355 292.908 115.366 292.908 113.388 293.077C110.782 293.146 108.182 293.351 105.598 293.692C98.8607 295.099 91.9509 295.49 85.0979 294.853C82.5012 296.288 82.1595 299.158 85.0979 299.773C94.6695 302.134 104.682 302.04 114.208 299.5C115.821 299.069 117.466 298.772 119.128 298.612C119.887 298.017 120.388 297.153 120.528 296.199C120.667 295.245 120.435 294.274 119.88 293.487L119.333 293.077Z" fill="#808080"/>
</g>
<g opacity="0.2">
<path d="M-25.2497 400C-48.038 400.046 -70.3417 406.583 -89.5497 418.845L-84.9997 425.43C-67.0497 414.045 -46.2497 408 -24.9997 408C-11.3497 408 2.20027 410.49 14.9503 415.36L18.1003 408.005C4.347 402.713 -10.2634 399.999 -24.9997 400H-25.2497ZM26.4003 411.56L23.2503 418.915C50.4003 431.87 71.2003 455.2 80.9503 483.65L88.6003 481.35C81.4003 448.75 60.6003 422.65 26.4003 411.56ZM-25.2997 417.5C-44.4997 417.555 -63.3497 423.01 -79.5997 433.245L-25.9497 510.75C-10.3497 482.85 1.40027 453.75 11.2003 424.1C-0.349731 419.735 -12.6497 417.5 -24.9997 417.5H-25.2997ZM-10.5997 421.965L-1.04973 433.895L-8.04973 439.52L-17.5997 427.585L-10.5997 421.965ZM-96.9497 423.965C-134.41 444.1 -142.68 474.6 -144.4 508L-136.41 508.5C-133.215 477.55 -117.27 449.3 -92.3997 430.545L-96.9497 423.965ZM-41.8997 427.5C-37.7997 427.5 -33.9997 428.56 -30.9497 430.6C-27.8997 432.635 -25.4497 435.975 -25.4497 440C-25.4497 444.05 -27.8997 447.35 -30.9497 449.4C-33.9997 451.45 -37.7997 452.5 -41.8997 452.5C-45.9997 452.5 -49.7997 451.45 -52.8497 449.4C-55.8997 447.35 -58.3497 444.05 -58.3497 440C-58.3497 435.975 -55.8997 432.635 -52.8497 430.6C-49.7997 428.56 -45.9997 427.5 -41.8997 427.5ZM19.5003 427.655C10.3503 457.3 -1.34973 485.9 -17.0497 512.9L17.1003 502.7C15.5003 500.25 14.6003 497.25 14.6003 494.1C14.6003 486.6 19.8503 479.7 27.3003 479.7C34.7503 479.7 40.0003 486.6 40.0003 494.1C40.0003 494.7 39.9503 495.3 39.9003 495.95L71.8503 486.4C62.9003 460.65 44.0503 439.49 19.5003 427.655ZM-41.8997 436.5C-44.3997 436.5 -46.5497 437.22 -47.8497 438.08C-49.1497 438.935 -49.3497 439.605 -49.3497 440C-49.3497 440.395 -49.1497 441.065 -47.8497 441.92C-46.5497 442.8 -44.3997 443.5 -41.8997 443.5C-39.3997 443.5 -37.2497 442.8 -35.9497 441.92C-34.6497 441.065 -34.4497 440.395 -34.4497 440C-34.4497 439.605 -34.6497 438.935 -35.9497 438.08C-37.2497 437.22 -39.3997 436.5 -41.8997 436.5ZM-86.9997 438.36C-109.48 455.45 -123.925 481.05 -126.92 509.1C-95.5997 509.4 -64.3497 510 -33.9497 514.9L-43.4997 501.1L-52.7497 506.15L-57.0497 498.25L-48.6497 493.65L-77.1497 452.6L-88.6997 461.75L-94.2997 454.65L-82.2997 445.15L-86.9997 438.36ZM29.8003 445.25L35.9003 455.3L28.2003 460L22.1003 449.95L29.8003 445.25ZM-23.4497 456.8L-19.5497 464.9L-34.6497 472.05L-38.5497 463.95L-23.4497 456.8ZM-91.2997 467.5C-82.7997 467.5 -76.4997 475.3 -76.4997 484C-76.4997 492.7 -82.7997 500.5 -91.2997 500.5C-99.7997 500.5 -106.1 492.7 -106.1 484C-106.1 475.3 -99.7997 467.5 -91.2997 467.5ZM57.7003 472.15L59.5503 485.95L50.6503 487.15L48.8003 473.35L57.7003 472.15ZM-91.2997 476.5C-94.1497 476.5 -97.0997 479.45 -97.0997 484C-97.0997 488.55 -94.1497 491.5 -91.2997 491.5C-88.4497 491.5 -85.4997 488.55 -85.4997 484C-85.4997 479.45 -88.4497 476.5 -91.2997 476.5ZM27.3003 488.7C25.7003 488.7 23.6003 490.65 23.6003 494.1C23.6003 497.55 25.7003 499.5 27.3003 499.5C28.9003 499.5 31.0003 497.55 31.0003 494.1C31.0003 490.65 28.9003 488.7 27.3003 488.7ZM91.2003 490L83.5003 492.25C85.8003 501.3 87.0003 510.65 87.0003 520C87.0003 543.55 79.6003 566.5 65.8003 585.6L72.1003 590.55C87.0003 570.05 95.0003 545.35 95.0003 520C95.0003 509.9 93.7503 499.8 91.2003 490ZM74.4003 495L12.4003 513.55L17.4003 517.1L12.2003 524.4L1.50027 516.8L-15.3997 521.85C7.15028 543.3 33.4503 560.7 58.3003 579.7C70.2003 562.3 74.0003 541.4 77.5003 520C78.8503 511.65 76.4503 503.15 74.4003 495ZM-144.965 517C-145.015 518 -144.965 519 -145.015 520C-147.555 555.15 -140.485 589.35 -103.73 610.6L-98.6997 604.35C-123.04 583.1 -137.005 552.35 -137 520V517.5L-144.965 517ZM-127.48 518.1V520C-127.48 531 -125.72 541.9 -122.255 552.35L-116.76 540.6L-108.61 544.4L-117.675 563.8C-111.705 576.45 -103.22 587.7 -92.7497 596.95L-33.9997 523.95L-98.5497 519.9L-110.85 532.15L-117.21 525.75L-110.6 519.15L-127.48 518.1ZM56.3003 524.65C57.4503 524.6 58.6003 524.75 59.7503 525.15C63.3503 526.25 65.9003 529.2 67.1003 532.55C68.3003 535.8 68.3003 539.5 67.1503 543.15C66.0503 546.75 63.8503 549.8 61.0503 551.85C58.1503 553.8 54.4003 554.8 50.7503 553.65C49.4503 553.25 48.3003 552.6 47.3003 551.8L43.4003 556.25L29.6003 544.35L35.5003 537.55L42.7503 543.8C42.2503 541.15 42.4503 538.35 43.3003 535.65C44.4503 532 46.6003 529 49.4503 527C51.4503 525.6 53.8503 524.7 56.3003 524.65ZM-74.2497 527.4L-59.3997 533L-62.5997 541.4L-77.4497 535.8L-74.2497 527.4ZM-19.8997 529.7L-17.2497 572C-14.8497 572.5 -12.6497 573.3 -10.6997 574.45C-7.34972 576.4 -4.49973 579.75 -4.49973 584C-4.49973 588.25 -7.34972 591.6 -10.6997 593.55C-12.2497 594.45 -13.9497 595.15 -15.7497 595.65L-14.0997 621.9C-8.54973 621.3 -3.09972 620.25 2.25027 618.8L4.00027 604.25L12.9003 605.35L11.6503 615.7C27.5503 609.65 41.6503 599.7 52.7503 586.8C42.4003 578.65 30.0503 572.85 21.6503 562.35L18.0503 572.4L9.55028 569.4L14.1503 556.45C0.0502777 549.45 -8.74973 538.75 -19.8997 529.7ZM-28.7497 531.85L-85.7497 602.55C-68.1497 615.5 -46.8497 622.5 -24.9997 622.5H-23.0997L-24.7497 596.4C-28.3497 596.15 -31.6497 595.2 -34.3997 593.55C-37.7497 591.6 -40.5997 588.25 -40.5997 584C-40.5997 579.75 -37.7497 576.4 -34.3997 574.45C-32.0497 573.05 -29.2497 572.15 -26.2497 571.75L-28.7497 531.85ZM56.5503 533.65C56.0503 533.6 55.4503 533.8 54.6503 534.3C53.6003 535.05 52.5003 536.5 51.9003 538.35C51.3503 540.2 51.4503 542 51.8503 543.2C52.3003 544.4 52.9003 544.9 53.4503 545.05C54.0503 545.25 54.8003 545.15 55.8503 544.45C56.8503 543.75 58.0003 542.3 58.6003 540.45C59.1503 538.6 59.0503 536.75 58.6503 535.6C58.2003 534.4 57.6003 533.9 57.0503 533.7C56.9003 533.65 56.7503 533.65 56.5503 533.65ZM-90.0997 548.6C-87.9497 548.65 -85.7997 549.15 -83.7997 550.1C-76.6497 553.55 -73.1497 562.15 -76.5997 569.3C-80.0497 576.5 -88.9497 579.15 -96.0997 575.7C-103.26 572.25 -106.73 563.7 -103.29 556.5C-100.8 551.35 -95.5497 548.55 -90.0997 548.6ZM-90.5497 557.55C-92.5497 557.6 -94.3497 558.65 -95.1997 560.4C-96.3997 562.95 -95.2497 566.15 -92.1997 567.6C-89.1497 569.05 -85.9497 567.95 -84.6997 565.4C-83.4997 562.9 -84.6497 559.7 -87.6997 558.25C-88.6497 557.75 -89.6497 557.55 -90.5497 557.55ZM-22.5497 580.5C-25.5497 580.5 -28.2497 581.3 -29.8497 582.2C-31.4497 583.15 -31.5997 583.85 -31.5997 584C-31.5997 584.15 -31.4497 584.85 -29.8497 585.8C-28.2497 586.7 -25.5497 587.5 -22.5497 587.5C-19.5497 587.5 -16.8497 586.7 -15.2497 585.8C-13.6497 584.85 -13.4997 584.15 -13.4997 584C-13.4997 583.85 -13.6497 583.15 -15.2497 582.2C-16.8497 581.3 -19.5497 580.5 -22.5497 580.5ZM60.2003 592.7C41.5003 614.6 15.1503 628.45 -13.4997 631.4L-12.9997 639.4C19.0003 641.05 49.3003 633.75 66.5003 597.65L60.2003 592.7ZM-62.7497 594.2L-48.6997 595.5L-49.4997 604.5L-63.5497 603.2L-62.7497 594.2ZM-91.6997 609.95L-96.6997 616.2C-78.6497 638.7 -51.5997 642.05 -24.9997 640C-23.9997 639.9 -22.9997 640 -21.9997 639.95L-22.4997 631.95C-23.3497 632 -24.1497 632 -24.9997 632C-48.9997 632 -72.3997 624.25 -91.6997 609.95Z" fill="#808080"/>
</g>
</g>
<defs>
<clipPath id="clip0_696_343">
<rect width="299" height="641" fill="white" transform="translate(-153)"/>
</clipPath>
<clipPath id="clip1_696_343">
<rect width="150" height="150" fill="white" transform="translate(-17)"/>
</clipPath>
<clipPath id="clip2_696_343">
<rect width="164" height="164" fill="white" transform="translate(-31 197)"/>
</clipPath>
</defs>
</svg>
