<svg width="13" height="13" viewBox="0 0 13 13" fill="none" xmlns="http://www.w3.org/2000/svg">
<path fill-rule="evenodd" clip-rule="evenodd" d="M8.07492 2.2461C8.32875 2.20309 8.6125 2.18876 8.87979 2.23374C9.35591 2.31347 9.79706 2.53264 10.1464 2.86305C10.3738 2.868 10.5977 2.82351 10.7957 2.76023C10.9871 2.69837 11.1707 2.61529 11.3433 2.51256L11.3478 2.50959C11.4196 2.46216 11.5057 2.4408 11.5916 2.44914C11.6775 2.45748 11.7578 2.495 11.819 2.55534C11.8801 2.61568 11.9184 2.69513 11.9272 2.78023C11.936 2.86532 11.9149 2.95082 11.8674 3.02224C11.7642 3.17796 11.62 3.45578 11.459 3.76723L11.3817 3.91603C11.2894 4.094 11.1947 4.27394 11.1064 4.42818C11.051 4.52507 10.9917 4.62345 10.9319 4.70848V4.84393C10.938 5.654 10.7813 6.45716 10.471 7.20656C10.1606 7.95595 9.70279 8.63656 9.12423 9.20867C8.54568 9.78077 7.85798 10.2329 7.10125 10.5387C6.34453 10.8445 5.53395 10.9978 4.71681 10.9897C3.53267 10.9908 2.37344 10.6526 1.37865 10.0159C1.30754 9.97027 1.25415 9.90211 1.2272 9.82252C1.20026 9.74294 1.20135 9.65664 1.23031 9.57776C1.25927 9.49887 1.31438 9.43206 1.38662 9.38826C1.45886 9.34445 1.54395 9.32625 1.62799 9.33662C2.3151 9.41804 3.01151 9.30814 3.63916 9.01924C3.33294 8.88124 3.05906 8.68153 2.83498 8.43283C2.61089 8.18414 2.4415 7.8919 2.33761 7.57474C2.31781 7.51402 2.31416 7.44927 2.327 7.38674C2.33984 7.32421 2.36874 7.26603 2.41091 7.21782L2.4159 7.21288C2.16276 6.98931 1.95989 6.71546 1.82045 6.40911C1.68102 6.10276 1.60814 5.77077 1.60654 5.43468V5.40898C1.60651 5.32758 1.63349 5.24844 1.68333 5.18376C1.73317 5.11907 1.80309 5.07244 1.88231 5.05107C1.71345 4.71705 1.62583 4.34847 1.62649 3.97486C1.62621 3.55128 1.73797 3.13503 1.95063 2.76764C1.98085 2.71549 2.0234 2.67141 2.07464 2.63919C2.12587 2.60698 2.18423 2.58761 2.2447 2.58274C2.30517 2.57788 2.36593 2.58766 2.42173 2.61127C2.47753 2.63487 2.5267 2.67157 2.56501 2.71821C3.43729 3.78351 4.68698 4.47844 6.05876 4.66102C6.04685 4.21619 6.16005 3.77686 6.38569 3.39218C6.61133 3.0075 6.9405 2.69266 7.33638 2.4829C7.53685 2.3771 7.80215 2.29257 8.07542 2.2461H8.07492ZM2.45081 5.97748C2.54765 6.24766 2.71358 6.48828 2.93238 6.6758C3.15117 6.86332 3.41533 6.99132 3.699 7.04727C3.78073 7.06341 3.85468 7.10614 3.90912 7.16869C3.96355 7.23125 3.99536 7.31003 3.99948 7.39254C4.00361 7.47505 3.97981 7.55656 3.93188 7.62414C3.88395 7.69172 3.81463 7.74149 3.73491 7.76556C3.59927 7.80659 3.46014 7.83477 3.31901 7.85109C3.47223 8.04701 3.66777 8.20644 3.89127 8.31764C4.11477 8.42885 4.36056 8.48903 4.61059 8.49375C4.68772 8.49519 4.7625 8.52023 4.82471 8.56545C4.88691 8.61067 4.93349 8.67385 4.95807 8.74633C4.98264 8.81882 4.984 8.89706 4.96197 8.97034C4.93994 9.04363 4.89559 9.10836 4.835 9.15569C4.315 9.56128 3.71071 9.84747 3.06568 9.99362C3.5997 10.1631 4.1571 10.249 4.71781 10.2482H4.7223C5.4404 10.2557 6.15282 10.1213 6.81792 9.85276C7.48302 9.58423 8.08746 9.18699 8.59594 8.68426C9.10442 8.18153 9.50673 7.58338 9.77937 6.92476C10.052 6.26615 10.1895 5.56027 10.1838 4.84838V4.5839C10.1838 4.49387 10.2167 4.4069 10.2766 4.3392C10.3115 4.30014 10.3713 4.21017 10.4561 4.06236C10.5359 3.92295 10.6247 3.75487 10.7169 3.5774L10.7334 3.54477C10.4729 3.60288 10.2047 3.61907 9.93899 3.59272C9.84915 3.58302 9.76589 3.5414 9.70461 3.47556C9.45382 3.20598 9.11987 3.02654 8.75512 2.96539C8.57116 2.93959 8.38419 2.94376 8.20159 2.97774C8.0236 3.00521 7.85079 3.05904 7.68894 3.13742C7.36264 3.31025 7.10344 3.58556 6.95199 3.92018C6.80055 4.25479 6.76544 4.62977 6.85216 4.9863C6.86581 5.04237 6.86608 5.10081 6.85294 5.157C6.83981 5.21318 6.81363 5.26555 6.7765 5.30995C6.73936 5.35435 6.69229 5.38954 6.63903 5.41274C6.58576 5.43594 6.52778 5.4465 6.46967 5.44358C4.93752 5.36676 3.48899 4.72763 2.40593 3.65056C2.38489 3.75756 2.37436 3.86634 2.37451 3.97535V3.97634C2.37395 4.2486 2.44131 4.51678 2.5706 4.75699C2.6999 4.9972 2.8871 5.20198 3.11555 5.35312C3.18263 5.39788 3.23328 5.46299 3.25989 5.53868C3.2865 5.61438 3.28765 5.69659 3.26316 5.77299C3.23867 5.84939 3.18986 5.91586 3.12405 5.96245C3.05824 6.00903 2.97897 6.03321 2.89812 6.03137C2.74763 6.02723 2.59786 6.00952 2.45081 5.97748Z" fill="#808080"/>
</svg>
