<svg width="14" height="14" viewBox="0 0 14 14" fill="none" xmlns="http://www.w3.org/2000/svg">
<g clip-path="url(#clip0_696_35)">
<path d="M6.75892 2.17566C7.22793 2.17566 7.70901 2.18762 8.17527 2.2072L8.72602 2.2333L9.25317 2.2643L9.74686 2.29747L10.1978 2.33227C10.6871 2.3694 11.1476 2.5764 11.4981 2.91687C11.8487 3.25733 12.0669 3.70944 12.1144 4.19366L12.1363 4.42477L12.1775 4.91962C12.2159 5.43241 12.2444 5.99143 12.2444 6.52597C12.2444 7.06052 12.2159 7.61953 12.1775 8.13233L12.1363 8.62718C12.1292 8.70657 12.1221 8.78324 12.1144 8.85829C12.0669 9.34259 11.8486 9.79477 11.4979 10.1352C11.1472 10.4757 10.6867 10.6827 10.1972 10.7197L9.74741 10.7539L9.25372 10.7877L8.72602 10.8186L8.17527 10.8447C7.70343 10.8651 7.23121 10.8756 6.75892 10.8763C6.28663 10.8756 5.81441 10.8651 5.34257 10.8447L4.79183 10.8186L4.26467 10.7877L3.77098 10.7539L3.32007 10.7197C2.83074 10.6825 2.37029 10.4755 2.01972 10.1351C1.66916 9.79462 1.45093 9.34251 1.40344 8.85829L1.3815 8.62718L1.34036 8.13233C1.29842 7.59786 1.27609 7.06205 1.27344 6.52597C1.27344 5.99143 1.30196 5.43241 1.34036 4.91962L1.3815 4.42477C1.38863 4.34538 1.39576 4.2687 1.40344 4.19366C1.45092 3.70952 1.66906 3.25748 2.01951 2.91703C2.36997 2.57658 2.83029 2.36952 3.31952 2.33227L3.76988 2.29747L4.26357 2.2643L4.79128 2.2333L5.34202 2.2072C5.81405 2.18688 6.28645 2.17636 6.75892 2.17566ZM6.75892 3.26324C6.30637 3.26324 5.84065 3.2752 5.38755 3.29369L4.85107 3.31925L4.33598 3.34916L3.85216 3.38178L3.40894 3.41604C3.17598 3.43243 2.95641 3.53005 2.78913 3.69159C2.62185 3.85314 2.51767 4.06819 2.49505 4.29861C2.43087 4.95605 2.37053 5.77446 2.37053 6.52597C2.37053 7.27749 2.43087 8.09589 2.49505 8.75333C2.54168 9.22752 2.92128 9.59621 3.40894 9.6359L3.85216 9.66962L4.33598 9.70225L4.85107 9.7327L5.38755 9.75826C5.84065 9.77675 6.30637 9.78871 6.75892 9.78871C7.21147 9.78871 7.67719 9.77675 8.13029 9.75826L8.66677 9.7327L9.18186 9.70279L9.66568 9.67016L10.1089 9.6359C10.3419 9.61952 10.5614 9.5219 10.7287 9.36035C10.896 9.1988 11.0002 8.98376 11.0228 8.75333C11.087 8.09589 11.1473 7.27749 11.1473 6.52597C11.1473 5.77446 11.087 4.95605 11.0228 4.29861C11.0002 4.06819 10.896 3.85314 10.7287 3.69159C10.5614 3.53005 10.3419 3.43243 10.1089 3.41604L9.66568 3.38233L9.18186 3.3497L8.66677 3.31925L8.13029 3.29369C7.67343 3.2742 7.21621 3.26405 6.75892 3.26324ZM5.66182 5.20728C5.66179 5.15414 5.67485 5.10178 5.69987 5.05478C5.7249 5.00778 5.76113 4.96755 5.80541 4.93758C5.84969 4.90762 5.90069 4.88884 5.95396 4.88286C6.00723 4.87689 6.06117 4.88391 6.11108 4.90331L6.15552 4.92506L8.45942 6.2432C8.5053 6.26944 8.54411 6.30628 8.57256 6.35057C8.60101 6.39486 8.61825 6.4453 8.62283 6.49761C8.62741 6.54993 8.61918 6.60256 8.59885 6.65105C8.57852 6.69953 8.54668 6.74244 8.50605 6.77612L8.45942 6.80874L6.15552 8.12743C6.10909 8.15408 6.05679 8.16908 6.00318 8.17112C5.94957 8.17315 5.89627 8.16217 5.84792 8.13911C5.79957 8.11606 5.75764 8.08164 5.72578 8.03885C5.69392 7.99606 5.67309 7.9462 5.66512 7.8936L5.66182 7.84466V5.20728Z" fill="#808080"/>
</g>
<defs>
<clipPath id="clip0_696_35">
<rect width="13.1652" height="13.0509" fill="white" transform="translate(0.180664 0.000183105)"/>
</clipPath>
</defs>
</svg>
